<?xml version="1.0" encoding="utf-8"?>
<!-- Generator: Adobe Illustrator 28.0.0, SVG Export Plug-In . SVG Version: 6.00 Build 0)  -->
<svg version="1.1" id="svg23" xmlns="http://www.w3.org/2000/svg" xmlns:xlink="http://www.w3.org/1999/xlink" x="0px" y="0px"
	 viewBox="0 0 224.2 223.8" style="enable-background:new 0 0 224.2 223.8;" xml:space="preserve">
<style type="text/css">
	.st0{fill:#8045CE;}
</style>
<path class="st0" d="M168.4,94.6c3.4,5.1,6.9,9.7,9.4,14.7c10.7,21.5,10,42.7-3.3,62.9c-10.1,15.3-24.1,25.3-42.9,25.7
	c-25.5,0.6-51.1,0.1-76.6,0.1c0.2-9,10.1-17.2,22-17c15.2,0.2,30.5-0.5,45.7,0.2c21.9,1,40.9-17.5,43.2-38.1
	c1.6-14.2-1.5-26.2-10.4-36.3c-7.7-8.8-18.5-13.1-30.5-13.2c-16.8-0.1-33.5,0-50.2,0c-12.3,0-20.2-7.9-20.2-20.2
	c0-15.6,0-31.3,0-47.3H105v42.3H88.6v-24H71.5c0,8.3-0.4,16.7,0.2,25.1c0.3,4.5,3.1,7.4,8.7,7.3c15.4-0.3,30.9,0.1,46.3-0.2
	c14.6-0.2,26.7,5.2,37.3,14.8C165.2,92.5,166.7,93.3,168.4,94.6L168.4,94.6z"/>
<path class="st0" d="M19.2,141.9v81.9H0V0h19.2V141.9z"/>
<path class="st0" d="M224.2,122.3c0,33.7,0,66.8,0,99.9c0,0.4-0.2,0.8-0.3,1.6H205V0h19.2V122.3z"/>
<path class="st0" d="M146.9,121.7c7.5,15.2,4.7,31.3-7.4,38.6c-4.6,2.8-10.5,4.7-15.9,4.9c-15,0.6-30-0.2-45,0.4
	c-6.6,0.3-13.1,2.5-19.7,3.9c-1.3,0.3-2.6,0.9-4.3,1.6v-67.3c5.2,2.2,10.5,4.5,16.7,7.1v36.3c17.9,0,35.5,0.2,53-0.1
	c5-0.1,8.8-5.4,8.5-10.3c-0.3-5.3-4.6-9.2-10.2-9.2c-11.2,0-22.5,0-34,0v-17c13.7,0,27.1-0.5,40.5,0.2
	C136.3,111.1,142.1,115.7,146.9,121.7L146.9,121.7z"/>
</svg>
